<svg width="338" height="128" viewBox="0 0 338 128" fill="none" xmlns="http://www.w3.org/2000/svg">
<path d="M63.2695 16.7058L57.9569 18.1293L63.2695 16.7058L62.7904 14.9178L93.6807 6.64078C97.1901 43.0648 106.737 78.7423 121.92 112.04L91.0318 120.316L89.2637 113.717C87.9898 108.963 82.4558 107.247 78.6832 109.884C71.1384 115.157 61.9638 118.25 52.0504 118.25C26.3413 118.25 5.5 97.4085 5.5 71.6995C5.5 45.9904 26.3413 25.1491 52.0504 25.1491C53.3944 25.1491 54.7239 25.2059 56.0366 25.317C60.6182 25.705 64.5416 21.4535 63.2695 16.7058ZM279.463 91.6963H279.458L277.847 93.3072L250.751 120.404L196.418 66.0715L219.783 42.7068L245.92 68.844C248.589 71.5131 252.917 71.5131 255.586 68.844L307.222 17.2082L330.586 40.5728L279.463 91.6963ZM190.69 99.7266C190.69 111.431 181.202 120.919 169.497 120.919C157.793 120.919 148.305 111.431 148.305 99.7266C148.305 88.0223 157.793 78.5341 169.497 78.5341C181.202 78.5341 190.69 88.0223 190.69 99.7266Z" stroke="#D9D9D9" stroke-width="11"/>
</svg>
